<svg width="49" height="48" viewBox="0 0 49 48" fill="none" xmlns="http://www.w3.org/2000/svg">
<path d="M43.6869 26.4488C43.1287 26.0193 42.479 25.7243 41.7883 25.5868C41.0976 25.4492 40.3845 25.4728 39.7044 25.6556L31.8594 27.4594C32.0419 26.6884 32.0475 25.886 31.8759 25.1125C31.7042 24.339 31.3597 23.6144 30.8681 22.993C30.3766 22.3716 29.7508 21.8695 29.0376 21.5243C28.3244 21.1792 27.5423 20.9999 26.75 21H17.3638C16.5755 20.998 15.7947 21.1523 15.0664 21.4538C14.3381 21.7554 13.6768 22.1983 13.1206 22.7569L8.87937 27H3.5C2.70435 27 1.94129 27.3161 1.37868 27.8787C0.816071 28.4413 0.5 29.2044 0.5 30L0.5 37.5C0.5 38.2957 0.816071 39.0587 1.37868 39.6213C1.94129 40.1839 2.70435 40.5 3.5 40.5H23C23.1226 40.5001 23.2448 40.4849 23.3638 40.455L35.3638 37.455C35.4402 37.4368 35.5149 37.4117 35.5869 37.38L42.875 34.2788L42.9575 34.2413C43.6579 33.8912 44.2578 33.3687 44.7004 32.7228C45.1431 32.0769 45.414 31.329 45.4878 30.5494C45.5615 29.7699 45.4355 28.9844 45.1218 28.267C44.808 27.5496 44.3168 26.9238 43.6944 26.4488H43.6869ZM3.5 30H8V37.5H3.5V30ZM41.6431 31.5394L34.5181 34.5731L22.8125 37.5H11V29.1206L15.2431 24.8794C15.5207 24.5996 15.8511 24.3778 16.2152 24.2268C16.5792 24.0758 16.9696 23.9987 17.3638 24H26.75C27.3467 24 27.919 24.2371 28.341 24.659C28.7629 25.081 29 25.6533 29 26.25C29 26.8467 28.7629 27.419 28.341 27.841C27.919 28.2629 27.3467 28.5 26.75 28.5H21.5C21.1022 28.5 20.7206 28.658 20.4393 28.9393C20.158 29.2206 20 29.6022 20 30C20 30.3978 20.158 30.7794 20.4393 31.0607C20.7206 31.342 21.1022 31.5 21.5 31.5H27.5C27.6129 31.4997 27.7254 31.4871 27.8356 31.4625L40.3981 28.5731L40.4563 28.5581C40.8397 28.4517 41.2491 28.4908 41.6054 28.668C41.9618 28.8451 42.2401 29.1479 42.3867 29.5179C42.5333 29.8879 42.5379 30.299 42.3996 30.6722C42.2613 31.0454 41.9898 31.3543 41.6375 31.5394H41.6431ZM31.25 18C31.6206 18.0004 31.9906 17.9703 32.3562 17.91C32.7675 19.1316 33.52 20.21 34.5247 21.0175C35.5295 21.8251 36.7444 22.328 38.0259 22.467C39.3074 22.6059 40.6019 22.375 41.7563 21.8015C42.9108 21.2281 43.8769 20.3361 44.5404 19.2309C45.204 18.1258 45.5372 16.8538 45.5007 15.5653C45.4643 14.2768 45.0596 13.0257 44.3346 11.9599C43.6096 10.8941 42.5946 10.0581 41.4096 9.55087C40.2246 9.04363 38.9191 8.88631 37.6475 9.0975C37.2515 7.92046 36.5384 6.87549 35.5868 6.07758C34.6352 5.27968 33.4819 4.75977 32.2538 4.57507C31.0257 4.39037 29.7705 4.54805 28.6263 5.03075C27.4821 5.51345 26.4932 6.30245 25.7685 7.31094C25.0437 8.31942 24.6113 9.50829 24.5187 10.7467C24.4261 11.9851 24.6769 13.2251 25.2436 14.3301C25.8103 15.4352 26.6709 16.3625 27.7306 17.0099C28.7903 17.6574 30.0081 18 31.25 18ZM42.5 15.75C42.5 16.4917 42.2801 17.2167 41.868 17.8334C41.456 18.4501 40.8703 18.9307 40.1851 19.2146C39.4998 19.4984 38.7458 19.5726 38.0184 19.4279C37.291 19.2833 36.6228 18.9261 36.0984 18.4017C35.5739 17.8772 35.2168 17.209 35.0721 16.4816C34.9274 15.7542 35.0016 15.0002 35.2855 14.3149C35.5693 13.6297 36.0499 13.044 36.6666 12.632C37.2833 12.2199 38.0083 12 38.75 12C39.7446 12 40.6984 12.3951 41.4016 13.0984C42.1049 13.8016 42.5 14.7554 42.5 15.75ZM31.25 7.5C32.0681 7.50041 32.8636 7.76833 33.5152 8.2629C34.1669 8.75747 34.6389 9.45157 34.8594 10.2394C34.0911 10.7799 33.4442 11.4749 32.9599 12.2798C32.4756 13.0847 32.1646 13.9818 32.0469 14.9138C31.785 14.9703 31.5179 14.9992 31.25 15C30.2554 15 29.3016 14.6049 28.5984 13.9017C27.8951 13.1984 27.5 12.2446 27.5 11.25C27.5 10.2554 27.8951 9.30161 28.5984 8.59835C29.3016 7.89509 30.2554 7.5 31.25 7.5Z" fill="white"/>
</svg>
