<svg width="240" height="80" viewBox="0 0 240 80" fill="none" xmlns="http://www.w3.org/2000/svg">
<path d="M78.7422 61.0786V30.0327H83.3124L83.7476 32.5387H83.9653C85.271 30.8222 87.4901 29.5928 90.5796 29.5928C96.2341 29.5928 100.762 34.2552 100.762 41.1564C100.762 48.0577 96.2379 52.7201 90.5796 52.7201C87.5328 52.7201 85.4032 51.4435 84.2723 49.9941H84.0546V61.0747H78.7461L78.7422 61.0786ZM95.449 41.1604C95.449 37.1146 92.8803 34.5655 89.748 34.5655C86.6157 34.5655 84.0469 37.1146 84.0469 41.1604C84.0469 45.2061 86.6157 47.7552 89.748 47.7552C92.8803 47.7552 95.449 45.2061 95.449 41.1604Z" fill="white"/>
<path d="M103.455 41.1603C103.455 34.4319 108.239 29.5967 114.636 29.5967C121.032 29.5967 125.816 34.4319 125.816 41.1603C125.816 47.8888 121.032 52.724 114.636 52.724C108.239 52.724 103.455 47.8416 103.455 41.1603ZM120.465 41.1603C120.465 37.201 117.854 34.5654 114.636 34.5654C111.418 34.5654 108.764 37.205 108.764 41.1603C108.764 45.1157 111.418 47.712 114.636 47.712C117.854 47.712 120.465 45.1196 120.465 41.1603Z" fill="white"/>
<path d="M129.664 52.2837V21.5049H134.973V52.2876H129.664V52.2837Z" fill="white"/>
<path d="M154.678 30.0322H160.333L150.761 57.0756C149.805 59.7583 148.499 61.0781 145.06 61.0781H139.926V56.1094H144.279C145.064 56.1094 145.495 55.7126 145.759 55.0528L146.28 53.6034L137.318 30.0322H142.973L148.674 45.4688H149.544L154.678 30.0322Z" fill="white"/>
<path d="M161.348 53.3839H166.742C166.96 54.8333 168.394 56.8129 171.79 56.8129C174.966 56.8129 177.056 54.7901 177.056 51.7106V48.588H176.839C175.665 49.8645 173.489 51.0075 170.702 51.0075C165.048 51.0075 160.695 46.6083 160.695 40.2766C160.695 33.9449 165.048 29.5928 170.702 29.5928C173.617 29.5928 175.751 30.779 177.099 32.4523H177.317L177.752 30.0327H182.365V51.7106C182.365 57.6024 178.448 61.5185 171.79 61.5185C164.352 61.5185 161.48 56.593 161.348 53.3839ZM177.056 40.2805C177.056 36.8083 174.62 34.3887 171.53 34.3887C168.441 34.3887 166.047 36.8083 166.047 40.2805C166.047 43.7527 168.483 46.2155 171.53 46.2155C174.577 46.2155 177.056 43.796 177.056 40.2805Z" fill="white"/>
<path d="M186.053 41.1603C186.053 34.4319 190.837 29.5967 197.233 29.5967C203.63 29.5967 208.414 34.4319 208.414 41.1603C208.414 47.8888 203.63 52.724 197.233 52.724C190.837 52.724 186.053 47.8416 186.053 41.1603ZM203.063 41.1603C203.063 37.201 200.451 34.5654 197.233 34.5654C194.016 34.5654 191.361 37.205 191.361 41.1603C191.361 45.1157 194.016 47.712 197.233 47.712C200.451 47.712 203.063 45.1196 203.063 41.1603Z" fill="white"/>
<path d="M212.109 52.2841V30.0327H216.676L217.111 32.142H217.329C218.199 31.1325 220.375 29.5928 223.679 29.5928C228.727 29.5928 232.38 33.285 232.38 38.9136V52.2802H227.071V39.6167C227.071 36.7572 225.07 34.6911 222.33 34.6911C219.59 34.6911 217.414 36.8476 217.414 39.6167V52.2802H212.105L212.109 52.2841Z" fill="white"/>
<path d="M47.848 49.6865L60.898 42.0704C61.5897 41.6658 62.0172 40.9156 62.0172 40.1104V24.8781C62.0172 24.0729 61.5897 23.3227 60.898 22.9181L47.848 15.302C47.1563 14.8974 46.2974 14.9013 45.6096 15.302L32.5597 22.9181C31.8679 23.3227 31.4404 24.0729 31.4404 24.8781V52.0982L22.2884 57.4362L13.1363 52.0982V41.4184L22.2884 36.0804L28.3237 39.6037V32.4393L23.4076 29.568C23.0695 29.3716 22.6809 29.2655 22.2884 29.2655C21.8959 29.2655 21.5073 29.3716 21.1692 29.568L8.11923 37.1841C7.42748 37.5887 7 38.3389 7 39.1441V54.3764C7 55.1816 7.42748 55.9319 8.11923 56.3364L21.1692 63.9526C21.8609 64.3532 22.7159 64.3532 23.4076 63.9526L36.4575 56.3364C37.1493 55.9319 37.5768 55.1816 37.5768 54.3764V27.1523L37.74 27.0581L46.7249 21.8144L55.877 27.1523V37.8322L46.7249 43.1702L40.6974 39.6548V46.8192L45.6057 49.6826C46.2974 50.0833 47.1563 50.0833 47.8442 49.6826L47.848 49.6865Z" fill="white"/>
</svg>
