<svg width="25" height="25" viewBox="0 0 25 25" fill="none" xmlns="http://www.w3.org/2000/svg">
<path opacity="0.2" d="M21.7461 12.4437C21.7461 14.2238 21.2183 15.9638 20.2293 17.4439C19.2404 18.9239 17.8348 20.0775 16.1902 20.7586C14.5457 21.4398 12.7361 21.6181 10.9903 21.2708C9.24446 20.9235 7.64081 20.0664 6.38214 18.8077C5.12346 17.549 4.2663 15.9454 3.91903 14.1995C3.57176 12.4537 3.74999 10.6441 4.43118 8.99958C5.11237 7.35504 6.26592 5.94943 7.74597 4.9605C9.22601 3.97157 10.9661 3.44373 12.7461 3.44373C15.133 3.44373 17.4222 4.39194 19.1101 6.07976C20.7979 7.76759 21.7461 10.0568 21.7461 12.4437Z" fill="#228D21"/>
<path d="M17.0267 9.66334C17.0965 9.733 17.1518 9.81572 17.1895 9.90677C17.2273 9.99781 17.2467 10.0954 17.2467 10.194C17.2467 10.2925 17.2273 10.3901 17.1895 10.4812C17.1518 10.5722 17.0965 10.6549 17.0267 10.7246L11.7767 15.9746C11.7071 16.0443 11.6244 16.0996 11.5333 16.1374C11.4423 16.1751 11.3447 16.1946 11.2461 16.1946C11.1475 16.1946 11.0499 16.1751 10.9589 16.1374C10.8678 16.0996 10.7851 16.0443 10.7155 15.9746L8.46547 13.7246C8.32474 13.5839 8.24568 13.393 8.24568 13.194C8.24568 12.9949 8.32474 12.8041 8.46547 12.6633C8.6062 12.5226 8.79708 12.4436 8.9961 12.4436C9.19512 12.4436 9.38599 12.5226 9.52672 12.6633L11.2461 14.3837L15.9655 9.66334C16.0351 9.59361 16.1178 9.53829 16.2089 9.50055C16.2999 9.46281 16.3975 9.44338 16.4961 9.44338C16.5947 9.44338 16.6923 9.46281 16.7833 9.50055C16.8744 9.53829 16.9571 9.59361 17.0267 9.66334ZM22.4961 12.444C22.4961 14.3723 21.9243 16.2574 20.8529 17.8608C19.7816 19.4642 18.2588 20.7138 16.4773 21.4518C14.6957 22.1898 12.7353 22.3828 10.844 22.0066C8.95265 21.6304 7.21537 20.7018 5.85181 19.3383C4.48825 17.9747 3.55965 16.2374 3.18344 14.3461C2.80724 12.4548 3.00032 10.4944 3.73827 8.71281C4.47623 6.93123 5.72591 5.40849 7.32929 4.33714C8.93267 3.2658 10.8177 2.69397 12.7461 2.69397C15.3311 2.6967 17.8095 3.72481 19.6374 5.55269C21.4653 7.38058 22.4934 9.85895 22.4961 12.444ZM20.9961 12.444C20.9961 10.8123 20.5122 9.21722 19.6057 7.86052C18.6992 6.50381 17.4107 5.44639 15.9032 4.82196C14.3957 4.19754 12.7369 4.03416 11.1366 4.35249C9.53626 4.67082 8.06625 5.45656 6.91247 6.61034C5.75868 7.76412 4.97295 9.23413 4.65462 10.8345C4.33629 12.4348 4.49967 14.0936 5.12409 15.6011C5.74852 17.1086 6.80594 18.3971 8.16264 19.3036C9.51935 20.2101 11.1144 20.694 12.7461 20.694C14.9334 20.6915 17.0304 19.8215 18.577 18.2749C20.1236 16.7282 20.9936 14.6312 20.9961 12.444Z" fill="#228D21"/>
</svg>
