<svg width="20" height="21" viewBox="0 0 20 21" fill="none" xmlns="http://www.w3.org/2000/svg">
<path d="M10 2.70459C8.39303 2.70459 6.82214 3.18111 5.486 4.0739C4.14985 4.96669 3.10844 6.23564 2.49348 7.72029C1.87852 9.20494 1.71762 10.8386 2.03112 12.4147C2.34463 13.9908 3.11846 15.4385 4.25476 16.5748C5.39106 17.7111 6.8388 18.485 8.4149 18.7985C9.99099 19.112 11.6247 18.9511 13.1093 18.3361C14.594 17.7211 15.8629 16.6797 16.7557 15.3436C17.6485 14.0074 18.125 12.4366 18.125 10.8296C18.1227 8.6754 17.266 6.6101 15.7427 5.08686C14.2195 3.56362 12.1542 2.70686 10 2.70459ZM7.93985 13.9546H12.0602C11.6406 15.3874 10.9375 16.6788 10 17.696C9.0625 16.6788 8.35938 15.3874 7.93985 13.9546ZM7.65625 12.7046C7.44896 11.4632 7.44896 10.196 7.65625 8.95459H12.3438C12.551 10.196 12.551 11.4632 12.3438 12.7046H7.65625ZM3.125 10.8296C3.12446 10.1956 3.21202 9.56452 3.38516 8.95459H6.38985C6.20339 10.1976 6.20339 11.4615 6.38985 12.7046H3.38516C3.21202 12.0947 3.12446 11.4636 3.125 10.8296ZM12.0602 7.70459H7.93985C8.35938 6.27178 9.0625 4.98037 10 3.96318C10.9375 4.98037 11.6406 6.27178 12.0602 7.70459ZM13.6102 8.95459H16.6148C16.9617 10.1805 16.9617 11.4787 16.6148 12.7046H13.6102C13.7966 11.4615 13.7966 10.1976 13.6102 8.95459ZM16.1227 7.70459H13.3547C13.0357 6.44952 12.5001 5.25978 11.7719 4.18896C12.7022 4.43898 13.57 4.88094 14.3193 5.48641C15.0686 6.09188 15.6829 6.84747 16.1227 7.70459ZM8.22813 4.18896C7.49992 5.25978 6.96427 6.44952 6.64532 7.70459H3.87735C4.31713 6.84747 4.93143 6.09188 5.68074 5.48641C6.43005 4.88094 7.29778 4.43898 8.22813 4.18896ZM3.87735 13.9546H6.64532C6.96427 15.2097 7.49992 16.3994 8.22813 17.4702C7.29778 17.2202 6.43005 16.7782 5.68074 16.1728C4.93143 15.5673 4.31713 14.8117 3.87735 13.9546ZM11.7719 17.4702C12.5001 16.3994 13.0357 15.2097 13.3547 13.9546H16.1227C15.6829 14.8117 15.0686 15.5673 14.3193 16.1728C13.57 16.7782 12.7022 17.2202 11.7719 17.4702Z" fill="#343C4A"/>
</svg>
