<svg width="12" height="13" viewBox="0 0 12 13" fill="none" xmlns="http://www.w3.org/2000/svg">
<path d="M10.1475 5.72752L6.39746 9.47752C6.3452 9.52996 6.28311 9.57157 6.21473 9.59996C6.14636 9.62835 6.07306 9.64296 5.99902 9.64296C5.92499 9.64296 5.85169 9.62835 5.78331 9.59996C5.71494 9.57157 5.65284 9.52996 5.60058 9.47752L1.85059 5.72752C1.74491 5.62185 1.68555 5.47852 1.68555 5.32908C1.68555 5.17964 1.74491 5.03632 1.85059 4.93064C1.95626 4.82497 2.09958 4.76561 2.24902 4.76561C2.39847 4.76561 2.54179 4.82497 2.64746 4.93064L5.99949 8.28267L9.35152 4.93018C9.45719 4.8245 9.60052 4.76514 9.74996 4.76514C9.8994 4.76514 10.0427 4.8245 10.1484 4.93018C10.2541 5.03585 10.3134 5.17917 10.3134 5.32861C10.3134 5.47806 10.2541 5.62138 10.1484 5.72705L10.1475 5.72752Z" fill="#343C4A"/>
</svg>
