<svg width="40" height="40" viewBox="0 0 40 40" fill="none" xmlns="http://www.w3.org/2000/svg">
<path d="M11.2812 8.6377C17.512 8.6377 22.5625 13.7252 22.5625 20.0002C22.5625 26.2754 17.5116 31.3624 11.2812 31.3624C5.05125 31.3624 0 26.2754 0 20.0002C0 13.7253 5.05078 8.6377 11.2812 8.6377ZM29.2969 9.30323C32.4122 9.30323 34.9377 14.092 34.9377 20.0002H34.9381C34.9381 25.907 32.4127 30.6972 29.2975 30.6972C26.1823 30.6972 23.6567 25.907 23.6567 20.0002C23.6567 14.0936 26.1817 9.30323 29.297 9.30323H29.2969ZM38.0161 10.4175C39.1116 10.4175 40 14.7078 40 20.0003C40 25.2912 39.1119 29.5832 38.0161 29.5832C36.9203 29.5832 36.0327 25.2924 36.0327 20.0003C36.0327 14.7081 36.9208 10.4175 38.0161 10.4175Z" fill="#D3D9E3"/>
</svg>
