<svg width="40" height="40" viewBox="0 0 40 40" fill="none" xmlns="http://www.w3.org/2000/svg">
<path fill-rule="evenodd" clip-rule="evenodd" d="M37.8814 8.14502C38.4875 8.76577 38.9243 9.53812 39.1487 10.3854C39.9756 13.5131 40 20 40 20C40 20 40 26.5125 39.1743 29.6153C38.9499 30.4625 38.5131 31.2348 37.907 31.8555C37.301 32.4763 36.5469 32.9238 35.7197 33.1536C32.6905 34 20.5 34 20.5 34C20.5 34 8.30946 34 5.28087 33.153C4.45369 32.9232 3.69964 32.4757 3.0936 31.8549C2.48758 31.2342 2.05067 30.4619 1.82632 29.6146C1 26.487 1 20 1 20C1 20 1 13.5131 1.80133 10.4103C2.02568 9.56308 2.46259 8.79073 3.06862 8.16999C3.67465 7.54926 4.42871 7.10176 5.25588 6.87196C8.28509 6.02497 20.4756 6 20.4756 6C20.4756 6 32.6656 6 35.6942 6.84699C36.5213 7.07679 37.2754 7.52429 37.8814 8.14502ZM26.7077 20.0001L16.5951 25.9996L16.5945 14.0007L26.7077 20.0001Z" fill="#D3D9E3"/>
</svg>
