<svg width="40" height="40" viewBox="0 0 40 40" fill="none" xmlns="http://www.w3.org/2000/svg">
<path d="M33.9133 7.40795C38.4308 14.0118 40.6618 21.4607 39.8278 30.0362C39.8243 30.0725 39.8053 30.1058 39.7753 30.1276C36.3543 32.6252 33.0398 34.1409 29.7718 35.1461C29.7464 35.1538 29.7191 35.1534 29.6939 35.1449C29.6687 35.1364 29.6468 35.1204 29.6313 35.0989C28.8763 34.0544 28.1903 32.9533 27.5893 31.797C27.5548 31.7289 27.5863 31.6469 27.6573 31.62C28.7468 31.2119 29.7828 30.7227 30.7793 30.1435C30.8578 30.0978 30.8628 29.986 30.7903 29.9323C30.5788 29.7762 30.3693 29.6121 30.1688 29.4481C30.1313 29.4177 30.0808 29.4118 30.0383 29.4322C23.5688 32.4025 16.4818 32.4025 9.93583 29.4322C9.89333 29.4133 9.84283 29.4197 9.80633 29.4496C9.60634 29.6136 9.39634 29.7762 9.18684 29.9323C9.11434 29.986 9.12034 30.0978 9.19934 30.1435C10.1958 30.7118 11.2318 31.2119 12.3198 31.622C12.3903 31.6488 12.4238 31.7289 12.3888 31.797C11.8008 32.9548 11.1148 34.0559 10.3458 35.1004C10.3123 35.1426 10.2573 35.162 10.2053 35.1461C6.95284 34.1409 3.63835 32.6252 0.217351 30.1276C0.188851 30.1058 0.168351 30.071 0.165351 30.0347C-0.531648 22.617 0.88885 15.1065 6.07434 7.40646C6.08684 7.38607 6.10584 7.37017 6.12784 7.36072C8.67934 6.19645 11.4128 5.3399 14.2698 4.85073C14.3218 4.84277 14.3738 4.86664 14.4008 4.91237C14.7538 5.53378 15.1573 6.33067 15.4303 6.98191C18.4418 6.52455 21.5003 6.52455 24.5748 6.98191C24.8478 6.34459 25.2373 5.53378 25.5888 4.91237C25.6013 4.88968 25.6207 4.87151 25.6443 4.86044C25.6678 4.84937 25.6942 4.84597 25.7198 4.85073C28.5783 5.34139 31.3118 6.19794 33.8613 7.36072C33.8838 7.37017 33.9023 7.38607 33.9133 7.40795ZM16.9613 21.5114C16.9928 19.3186 15.3848 17.5041 13.3663 17.5041C11.3643 17.5041 9.77183 19.3027 9.77183 21.5114C9.77183 23.7197 11.3958 25.5183 13.3663 25.5183C15.3688 25.5183 16.9613 23.7197 16.9613 21.5114ZM30.2523 21.5114C30.2838 19.3186 28.6758 17.5041 26.6578 17.5041C24.6553 17.5041 23.0628 19.3027 23.0628 21.5114C23.0628 23.7197 24.6868 25.5183 26.6578 25.5183C28.6758 25.5183 30.2523 23.7197 30.2523 21.5114Z" fill="#D3D9E3"/>
</svg>
