<svg width="40" height="40" viewBox="0 0 40 40" fill="none" xmlns="http://www.w3.org/2000/svg">
<path d="M39.9842 7.8814C38.5282 8.52793 36.9602 8.95895 35.3202 9.15849C37.0002 8.15278 38.2802 6.56439 38.8882 4.68067C37.3202 5.59858 35.5842 6.27704 33.7362 6.63623C32.2562 5.0638 30.1442 4.08203 27.8082 4.08203C23.3202 4.08203 19.6882 7.7058 19.6882 12.1836C19.6882 12.8222 19.7602 13.4368 19.8962 14.0274C13.1522 13.6922 7.16821 10.4675 3.1602 5.56666C2.4642 6.76394 2.0642 8.15278 2.0642 9.63741C2.0642 12.447 3.4962 14.9294 5.67221 16.3821C4.34421 16.3422 3.0882 15.975 1.9922 15.3684C1.9922 15.4003 1.9922 15.4322 1.9922 15.4721C1.9922 19.3992 4.79221 22.6718 8.50421 23.4141C7.82421 23.5977 7.10421 23.7014 6.36821 23.7014C5.84821 23.7014 5.33621 23.6536 4.84021 23.5578C5.87221 26.7745 8.87221 29.1211 12.4242 29.185C9.64821 31.356 6.14421 32.6491 2.3442 32.6491C1.6882 32.6491 1.0402 32.6092 0.408203 32.5374C4.00021 34.8361 8.27221 36.1771 12.8562 36.1771C27.7922 36.1771 35.9602 23.8371 35.9602 13.1255C35.9602 12.7743 35.9522 12.4231 35.9362 12.0799C37.5202 10.9305 38.8962 9.50171 39.9842 7.8814Z" fill="#D3D9E3"/>
</svg>
