<svg width="248" height="78" viewBox="0 0 248 78" fill="none" xmlns="http://www.w3.org/2000/svg">
<g clip-path="url(#clip0_2284_12894)">
<path d="M49.9841 10C50.7782 10.1281 51.5839 10.2096 52.3604 10.3901C55.373 11.0829 57.9127 12.6374 60.1255 14.7392C63.3191 17.7784 65.4501 21.4929 66.9506 25.5916C68.2701 29.1955 68.9882 32.9275 69.1692 36.7585C69.5136 43.9721 68.2759 50.8597 64.7437 57.2407C63.033 60.3264 60.8378 63.0104 57.9302 65.0715C55.7467 66.6202 53.3412 67.6332 50.6672 67.9185C47.3335 68.2795 44.245 67.4993 41.39 65.7818C38.4941 64.0351 36.2639 61.6248 34.4423 58.8185C32.1244 55.2437 30.6648 51.3196 29.8124 47.1626C29.2052 44.1992 28.9367 41.2066 29.0126 38.1907C29.1702 31.7573 30.5889 25.6499 33.9051 20.0606C35.7559 16.94 38.103 14.2734 41.2207 12.3347C43.2992 11.0422 45.5528 10.2387 48.0166 10.0524C48.1042 10.0466 48.1917 10.0175 48.2793 10C48.8456 10 49.4178 10 49.9841 10ZM67.0206 39.3493C67.009 36.3218 66.7579 33.6669 66.2091 31.047C65.4034 27.216 64.0606 23.6005 61.9179 20.3052C60.2422 17.726 58.1871 15.5194 55.4839 13.9707C52.7632 12.4104 49.8615 11.8398 46.7613 12.4511C43.883 13.0159 41.4951 14.4889 39.4224 16.5033C36.947 18.9137 35.1954 21.8014 33.8876 24.9687C32.2879 28.8462 31.4764 32.8984 31.272 37.0729C31.1085 40.4439 31.3538 43.7858 32.0602 47.0928C32.9068 51.0401 34.3197 54.7663 36.6083 58.1257C38.319 60.6408 40.4033 62.7776 43.1123 64.2331C45.5995 65.5664 48.2326 66.0845 51.0409 65.6362C53.639 65.2228 55.8751 64.0468 57.8543 62.37C60.4583 60.1692 62.3324 57.4328 63.7628 54.3704C66.0398 49.4973 66.9798 44.3447 67.0206 39.3493Z" fill="white"/>
<path d="M117.447 44.269H107.119V30.6743H117.418V33.1487H109.91V36.2112H116.828V38.6797H109.904V41.7655H117.447V44.269Z" fill="white"/>
<path d="M196.85 40.5255C197.842 40.3217 198.788 40.1354 199.745 39.9375C199.781 40.019 199.821 40.083 199.839 40.1529C200.201 41.3581 201.053 41.9927 202.268 42.1033C202.822 42.1557 203.394 42.0625 203.949 41.9752C204.2 41.9344 204.457 41.7714 204.667 41.6142C205.158 41.2474 205.315 40.7234 205.228 40.1354C205.152 39.594 204.79 39.2563 204.288 39.1282C203.453 38.9186 202.606 38.773 201.766 38.5867C201.047 38.4237 200.318 38.2956 199.629 38.0453C198.239 37.5446 197.369 36.5606 197.206 35.0585C197.025 33.3934 197.591 32.0485 199.057 31.1635C200.417 30.3368 201.923 30.2145 203.465 30.4241C204.854 30.6162 206.033 31.2217 206.915 32.3396C207.37 32.916 207.715 33.7078 207.762 34.2784C206.862 34.4647 205.963 34.651 205.047 34.8373C205.018 34.7791 204.988 34.7441 204.983 34.7034C204.515 32.654 202.04 32.3221 200.826 33.1372C200.248 33.5215 200.02 34.0746 200.142 34.7499C200.236 35.2681 200.598 35.5534 201.077 35.6757C201.801 35.8561 202.542 35.9726 203.272 36.1531C204.148 36.3743 205.058 36.5315 205.876 36.8925C207.265 37.498 207.972 38.6508 208.001 40.1703C208.036 41.754 207.376 42.9708 205.998 43.7742C204.79 44.4787 203.459 44.6417 202.087 44.5719C200.773 44.502 199.529 44.1818 198.467 43.3667C197.539 42.6564 197.019 41.7132 196.855 40.5313L196.85 40.5255Z" fill="white"/>
<path d="M118.894 30.6511C120.01 30.6511 121.066 30.6453 122.123 30.6627C122.228 30.6627 122.362 30.8025 122.433 30.9131C123.367 32.3453 124.289 33.7834 125.212 35.2214C125.276 35.3262 125.346 35.4252 125.439 35.5591C125.539 35.4136 125.62 35.2971 125.696 35.1807C126.607 33.7659 127.524 32.3453 128.434 30.9247C128.557 30.7326 128.68 30.6453 128.919 30.6511C129.923 30.6685 130.933 30.6569 132.002 30.6569C131.593 31.2799 131.219 31.8563 130.846 32.4326C129.806 34.0221 128.767 35.6173 127.716 37.201C127.588 37.3989 127.6 37.5212 127.722 37.7075C129.071 39.7627 130.408 41.8237 131.745 43.8789C131.821 43.9954 131.897 44.1177 132.002 44.2923C131.091 44.2923 130.239 44.2516 129.398 44.304C128.802 44.3447 128.469 44.1468 128.166 43.6344C127.372 42.2895 126.508 40.9912 125.667 39.6695C125.603 39.5647 125.533 39.4658 125.439 39.3319C125.352 39.4541 125.282 39.5531 125.217 39.6521C124.301 41.096 123.378 42.534 122.473 43.9837C122.327 44.2166 122.17 44.2923 121.901 44.2923C120.915 44.2748 119.928 44.2865 118.894 44.2865C118.965 44.1642 119 44.0769 119.052 43.9954C120.401 41.9169 121.744 39.8326 123.098 37.7599C123.25 37.527 123.262 37.3756 123.098 37.1369C121.744 35.0875 120.412 33.0265 119.07 30.9655C119.017 30.884 118.965 30.7966 118.877 30.6569L118.894 30.6511Z" fill="white"/>
<path d="M93.9131 44.2807C92.9498 44.2807 92.0448 44.2866 91.134 44.2691C91.0289 44.2691 90.8771 44.141 90.8304 44.0362C90.486 43.2386 90.1649 42.4293 89.8437 41.62C89.7678 41.4337 89.6744 41.3697 89.4701 41.3697C87.6427 41.3755 85.8152 41.3813 83.982 41.3697C83.7601 41.3697 83.6667 41.4512 83.585 41.6433C83.2638 42.441 82.9311 43.2328 82.6041 44.0246C82.5399 44.1818 82.4815 44.2924 82.2713 44.2866C81.3605 44.2749 80.4556 44.2866 79.5039 44.2866C79.5448 44.1701 79.5681 44.0828 79.6032 43.9955C81.489 39.6522 83.3806 35.3089 85.2606 30.9597C85.3598 30.7268 85.4766 30.6395 85.7335 30.6453C86.3932 30.6628 87.053 30.6628 87.7069 30.6453C87.9404 30.6395 88.0455 30.7152 88.1331 30.9248C89.5635 34.2434 91.0056 37.562 92.4477 40.8806C92.9031 41.9286 93.3585 42.9766 93.8139 44.0246C93.8431 44.0944 93.8606 44.1701 93.9014 44.2866L93.9131 44.2807ZM86.7669 34.127C86.7669 34.127 86.7085 34.127 86.6852 34.1211C86.0429 35.6873 85.4007 37.2534 84.7526 38.8312H88.6877C88.0397 37.2418 87.4091 35.6815 86.7727 34.127H86.7669Z" fill="white"/>
<path d="M190.37 30.6453C192.337 35.1807 194.305 39.7045 196.29 44.2807C195.286 44.2807 194.346 44.2807 193.406 44.269C193.33 44.269 193.219 44.1293 193.178 44.0362C192.845 43.2443 192.518 42.4525 192.209 41.6491C192.127 41.4395 192.022 41.3638 191.788 41.3638C189.973 41.3754 188.157 41.3754 186.335 41.3638C186.119 41.3638 186.02 41.4278 185.938 41.6316C185.617 42.4409 185.279 43.2443 184.94 44.042C184.899 44.1351 184.788 44.269 184.706 44.269C183.767 44.2865 182.832 44.2807 181.834 44.2807C182.12 43.6228 182.377 43.0115 182.64 42.406C184.298 38.5925 185.956 34.779 187.602 30.9597C187.707 30.7151 187.83 30.6336 188.099 30.6394C188.846 30.6627 189.593 30.6453 190.358 30.6453H190.37ZM187.094 38.8312H191.029C190.376 37.2243 189.739 35.6581 189.068 34.0279C188.391 35.6756 187.748 37.2359 187.089 38.8312H187.094Z" fill="white"/>
<path d="M137.35 30.6453C138.342 30.6453 139.282 30.6336 140.228 30.6569C140.333 30.6569 140.485 30.8083 140.537 30.9248C141.536 33.2769 142.517 35.629 143.509 37.987C143.854 38.8079 144.198 39.6288 144.572 40.508C144.642 40.3799 144.689 40.2984 144.724 40.211C146.025 37.1311 147.322 34.0454 148.612 30.9597C148.717 30.7093 148.845 30.6336 149.108 30.6395C149.996 30.6569 150.877 30.6453 151.806 30.6453C151.77 30.7559 151.747 30.8432 151.706 30.9306C149.82 35.2855 147.935 39.6405 146.055 44.0012C145.955 44.2283 145.833 44.2923 145.599 44.2865C144.951 44.2691 144.303 44.2632 143.655 44.2865C143.352 44.2982 143.206 44.205 143.083 43.9197C141.349 39.8792 139.597 35.8503 137.852 31.8155C137.688 31.4429 137.531 31.0703 137.35 30.6453Z" fill="white"/>
<path d="M95.4062 44.2573V30.6743H98.1736V41.7655H105.221V44.2573H95.4004H95.4062Z" fill="white"/>
<path d="M161.947 41.7654H168.988V44.2631H159.186V30.6685H161.941V41.7654H161.947Z" fill="white"/>
<path d="M173.613 41.7712H180.689V44.2573H170.893V30.6685H173.613V41.7712Z" fill="white"/>
<path d="M153.4 30.657H156.144V44.2575H153.4V30.657Z" fill="white"/>
<path d="M39.3574 37.294C39.6902 36.5081 40.0054 35.7512 40.3266 34.9943C42.4926 29.8999 44.6587 24.8056 46.8189 19.7054C46.924 19.4609 47.0349 19.3677 47.3093 19.3735C48.5354 19.391 49.7614 19.3852 50.9875 19.3735C51.2035 19.3735 51.3028 19.4434 51.3845 19.6414C53.8542 25.446 56.3238 31.2449 58.7935 37.0437C58.8227 37.1136 58.8519 37.1892 58.8869 37.2882C58.8285 37.2999 58.7876 37.3115 58.7468 37.3115C57.4623 37.3115 56.1779 37.3115 54.8992 37.3173C54.6891 37.3173 54.6307 37.2125 54.5665 37.0553C54.1403 35.9841 53.7024 34.9186 53.282 33.8415C53.2003 33.6319 53.101 33.5562 52.8675 33.5562C50.3686 33.5679 47.8698 33.5679 45.3709 33.5562C45.1082 33.5562 45.0031 33.6494 44.9156 33.8823C44.5185 34.9244 44.0923 35.9608 43.6953 37.0088C43.6077 37.23 43.5027 37.3173 43.2574 37.3173C42.0664 37.3057 40.8754 37.3115 39.6785 37.3115C39.5792 37.3115 39.48 37.2999 39.3457 37.294H39.3574ZM51.8983 30.1736C50.9758 27.8913 50.065 25.6498 49.1309 23.3442C48.1851 25.6556 47.2684 27.8971 46.3401 30.1736H51.8983Z" fill="white"/>
<path d="M36.4746 44.0536C36.895 43.0638 37.292 42.1265 37.6948 41.1949C37.9634 40.5836 37.7766 40.6942 38.4713 40.6884C40.0477 40.6826 41.6299 40.6884 43.2063 40.6768C43.4924 40.6768 43.615 40.7641 43.7201 41.0261C45.4774 45.4684 47.2465 49.9106 49.0155 54.3529C49.0447 54.4286 49.0739 54.4985 49.1323 54.6266C49.2374 54.3704 49.3308 54.1666 49.4125 53.957C51.129 49.6312 52.8514 45.3053 54.562 40.9737C54.6496 40.7466 54.7664 40.6768 55.0057 40.6768C56.6755 40.6884 58.3453 40.6884 60.0151 40.6768C60.2662 40.6768 60.3946 40.7408 60.4939 40.9795C60.85 41.8586 61.2353 42.7261 61.609 43.5995C61.6674 43.7334 61.7141 43.8673 61.7841 44.0419C61.6207 44.0419 61.4981 44.0419 61.3755 44.0419C60.1844 44.0419 58.9934 44.0478 57.7965 44.0361C57.563 44.0361 57.4579 44.1176 57.3703 44.3214C55.4086 48.95 53.441 53.5786 51.4852 58.213C51.3567 58.5157 51.2108 58.6322 50.8721 58.6205C49.7045 58.5973 48.5309 58.6031 47.3633 58.6205C47.0889 58.6205 46.9546 58.5449 46.8436 58.2829C44.8761 53.6426 42.8969 49.0082 40.9293 44.368C40.8242 44.1176 40.7016 44.0361 40.4331 44.0361C39.2654 44.0536 38.0919 44.0419 36.9242 44.0419C36.8016 44.0419 36.679 44.0419 36.4804 44.0419L36.4746 44.0536Z" fill="white"/>
</g>
<defs>
<clipPath id="clip0_2284_12894">
<rect width="179" height="58" fill="white" transform="translate(29 10)"/>
</clipPath>
</defs>
</svg>
