<svg width="248" height="78" viewBox="0 0 248 78" fill="none" xmlns="http://www.w3.org/2000/svg">
<path fill-rule="evenodd" clip-rule="evenodd" d="M76.413 18.1827C73.9884 18.6605 72.0845 19.7038 70.5267 21.4082L69.7948 22.209L69.7936 20.3328L69.7923 18.4566H65.8962H62V38.6185V58.7805H65.8962H69.7923V45.4465C69.7923 30.5716 69.7614 31.2036 70.5749 29.4897C71.5742 27.3844 73.2462 25.9139 75.4954 25.1616C76.1879 24.9301 76.496 24.8975 77.98 24.8987C79.5418 24.8999 79.7444 24.9245 80.5774 25.2131C81.8859 25.6665 82.9415 26.3303 83.9294 27.3204C84.6148 28.0076 84.905 28.4084 85.3127 29.2318C86.0149 30.6502 86.2083 31.4582 86.2054 32.962C86.2026 34.4615 85.9834 35.4372 85.3751 36.6584C84.2742 38.8689 82.382 40.3758 79.9374 40.9889C78.6462 41.3127 76.77 41.2447 75.5519 40.8299C75.0861 40.6711 74.6905 40.5749 74.6728 40.616C74.6552 40.6571 74.01 41.8249 73.2392 43.211L71.8374 45.7312L72.1137 45.9779C72.524 46.3444 73.6008 46.9468 74.4428 47.2809C75.7457 47.7978 76.5161 47.9317 78.5446 47.9933C80.7897 48.0616 81.9241 47.9095 83.7905 47.2902C90.8174 44.9582 95.1031 37.9981 94.0097 30.6942C93.0739 24.4436 87.9528 19.2771 81.6072 18.1818C80.3658 17.9674 77.5026 17.9679 76.413 18.1827ZM108.924 18.1648C104.987 18.9071 101.338 21.2854 99.1439 24.5394C97.3729 27.1656 96.5583 29.7836 96.5583 32.85C96.5583 36.8311 98.0925 40.4842 100.958 43.3265C104.645 46.9828 110.198 48.5289 114.989 47.2329C115.959 46.9705 117.694 46.1478 118.209 45.7062L118.572 45.3952L117.106 42.8107L115.641 40.2261L114.883 40.4792C111.483 41.6143 107.428 40.0023 105.494 36.7458C104.674 35.3658 104.524 34.764 104.521 32.85C104.519 31.2533 104.536 31.1219 104.868 30.2045C105.706 27.8809 107.58 26.0622 110.018 25.2052C111.212 24.7857 113.185 24.7187 114.516 25.0524C116.894 25.6488 118.774 27.1475 119.882 29.3294C120.681 30.9026 120.651 30.5343 120.696 39.3186L120.736 47.2434H124.514H128.291V32.85V18.4566H124.508H120.725V20.3701V22.2836L119.882 21.3952C118.48 19.9161 116.736 18.8691 114.793 18.3392C113.65 18.0276 110.195 17.9249 108.924 18.1648ZM146.738 18.1743C144.506 18.576 142.83 19.4637 141.194 21.1107L140.262 22.0486V20.2526V18.4566H136.31H132.357V32.85V47.2434H136.31H140.262V39.199C140.262 30.2176 140.223 30.7034 141.076 29.07C141.977 27.3443 143.723 25.8592 145.581 25.2362C146.352 24.9778 146.786 24.9086 147.894 24.8668C149.422 24.8093 150.531 25.014 151.725 25.5742C152.082 25.7419 152.408 25.832 152.461 25.7781C152.514 25.7249 153.253 24.4464 154.104 22.9371C154.954 21.4277 155.72 20.0933 155.805 19.9718C155.89 19.8504 155.96 19.7126 155.96 19.6657C155.96 19.3934 153.701 18.5749 152.001 18.2314C150.701 17.9685 148.042 17.9397 146.738 18.1743ZM166.293 18.1862C161.997 18.9355 157.808 21.8957 155.665 25.6961C152.779 30.8141 153.208 37.2312 156.752 41.9725C159.018 45.0033 162.639 47.2133 166.393 47.8557C168.723 48.2547 171.757 47.9941 173.69 47.2288C174.906 46.7476 176.209 45.924 176.119 45.6931C176.081 45.5936 175.41 44.4106 174.628 43.0646C173.365 40.8907 173.18 40.6248 172.968 40.6861C171.592 41.0864 170.951 41.1948 169.964 41.1948C166.799 41.1948 164.033 39.4849 162.625 36.6584C162.017 35.4372 161.797 34.4615 161.795 32.962C161.792 31.4582 161.985 30.6502 162.687 29.2318C163.594 27.4014 165.309 25.9456 167.423 25.2131C168.256 24.9245 168.458 24.8999 170.02 24.8987C171.504 24.8975 171.812 24.9301 172.505 25.1616C174.754 25.9139 176.426 27.3844 177.425 29.4897C178.239 31.2036 178.208 30.5716 178.208 45.4465V58.7805H182.104H186V38.6185V18.4566H182.104H178.208L178.207 20.3328L178.207 22.209L177.405 21.3386C175.819 19.6158 173.908 18.6008 171.445 18.173C170.255 17.9664 167.514 17.9734 166.293 18.1862ZM78.714 53.964C78.714 54.1877 78.7894 54.188 124.565 54.188C170.34 54.188 170.415 54.1877 170.415 53.964C170.415 53.7403 170.34 53.74 124.565 53.74C78.7894 53.74 78.714 53.7403 78.714 53.964ZM107.33 59.1636C107.296 59.2511 107.285 60.6007 107.306 62.1627L107.342 65.0026L107.711 65.7439C108.287 66.9054 109.376 67.7086 110.646 67.9092L111.126 67.985V67.2054V66.4258L110.672 66.3539C110.099 66.263 109.424 65.6204 109.231 64.9814C109.138 64.6732 109.093 63.6184 109.093 61.7637V59.0045H108.242C107.612 59.0045 107.376 59.0456 107.33 59.1636ZM113.158 61.8814C113.158 64.5761 113.143 64.7892 112.921 65.2447C112.662 65.7759 112.149 66.2241 111.662 66.3446C111.491 66.3869 111.352 66.4427 111.352 66.4685C111.352 66.4944 111.506 66.8193 111.695 67.1905C111.994 67.7784 112.071 67.8559 112.288 67.7917C113.152 67.5363 114.231 66.555 114.657 65.6377C114.886 65.1441 114.905 64.9064 114.942 62.0568L114.982 59.0045H114.07H113.158V61.8814ZM115.756 63.4243V67.8627L116.631 67.83L117.506 67.7973L117.537 66.0331L117.569 64.269H119.245C120.745 64.269 120.95 64.2923 121.205 64.4912C121.362 64.6134 121.524 64.8454 121.564 65.0066C121.66 65.3842 121.444 66.0312 121.175 66.1741C121.06 66.2351 120.327 66.2852 119.547 66.2852C118.766 66.2852 118.126 66.3229 118.124 66.3692C118.123 66.4154 118.288 66.7678 118.491 67.1524L118.862 67.8514L119.888 67.8524C121.623 67.854 122.492 67.446 123.028 66.3784C123.538 65.3633 123.405 64.3043 122.66 63.4634C122.309 63.0665 122.309 63.0659 122.502 62.6875C122.943 61.8261 122.662 60.4806 121.893 59.7733C121.159 59.0983 120.996 59.0645 118.269 59.0236L115.756 58.9859V63.4243ZM124.135 62.108C124.168 65.1399 124.176 65.2342 124.438 65.7216C124.859 66.5045 125.13 66.8188 125.745 67.2359C126.362 67.6549 127.68 68.0562 127.859 67.8794C127.917 67.8214 127.949 67.4786 127.931 67.1177C127.897 66.4777 127.887 66.4597 127.532 66.388C127.045 66.2898 126.678 66.0386 126.294 65.5404L125.976 65.1271L125.92 62.0937L125.863 59.0605L124.982 59.0277L124.1 58.9948L124.135 62.108ZM129.985 61.6723C129.985 64.8159 129.905 65.2439 129.19 65.8844C128.939 66.1089 128.586 66.3219 128.405 66.3579L128.076 66.4232L128.407 67.0741C128.589 67.432 128.79 67.7569 128.854 67.7957C129.048 67.9149 130.318 67.1678 130.728 66.6936C130.94 66.4475 131.228 66.0154 131.368 65.7336C131.611 65.2448 131.625 65.0768 131.656 62.1128L131.689 59.0045H130.838H129.985V61.6723ZM132.583 63.4289V67.8533H133.43H134.277V64.213V60.5726L135.604 60.5751C137.155 60.578 137.595 60.7229 138.253 61.4465C139.525 62.8455 139.073 65.3138 137.402 66.1007C137.122 66.2322 136.698 66.2852 135.926 66.2852C135.329 66.2852 134.843 66.3229 134.845 66.3692C134.847 66.4154 135.012 66.7556 135.212 67.1252C135.571 67.7892 135.582 67.7978 136.113 67.8315C137.792 67.9382 139.542 66.8726 140.308 65.2771C140.627 64.6136 140.658 64.4495 140.658 63.4289C140.658 62.4364 140.621 62.2309 140.339 61.625C139.762 60.3879 138.446 59.3696 137.094 59.1154C136.77 59.0544 135.622 59.0045 134.544 59.0045H132.583V63.4289ZM120.717 60.8678C120.845 61.0301 120.951 61.3257 120.951 61.5247C120.951 61.7238 120.845 62.0194 120.717 62.1817C120.485 62.4733 120.465 62.4768 119.023 62.4768H117.563V61.5247V60.5726H119.023C120.465 60.5726 120.485 60.5761 120.717 60.8678Z" fill="white"/>
</svg>
