<svg width="24" height="25" viewBox="0 0 24 25" fill="none" xmlns="http://www.w3.org/2000/svg">
<path d="M19.5469 18.1244C19.7582 18.3357 19.8769 18.6224 19.8769 18.9213C19.8769 19.2202 19.7582 19.5068 19.5469 19.7181C19.3355 19.9295 19.0489 20.0482 18.75 20.0482C18.4511 20.0482 18.1645 19.9295 17.9531 19.7181L12.0009 13.7641L6.04687 19.7163C5.83553 19.9276 5.54888 20.0463 5.25 20.0463C4.95111 20.0463 4.66447 19.9276 4.45312 19.7163C4.24178 19.5049 4.12305 19.2183 4.12305 18.9194C4.12305 18.6205 4.24178 18.3339 4.45312 18.1225L10.4072 12.1703L4.455 6.21627C4.24365 6.00492 4.12492 5.71828 4.12492 5.41939C4.12492 5.12051 4.24365 4.83386 4.455 4.62252C4.66634 4.41117 4.95299 4.29244 5.25187 4.29244C5.55076 4.29244 5.8374 4.41117 6.04875 4.62252L12.0009 10.5766L17.955 4.62158C18.1663 4.41024 18.453 4.2915 18.7519 4.2915C19.0508 4.2915 19.3374 4.41024 19.5487 4.62158C19.7601 4.83292 19.8788 5.11957 19.8788 5.41846C19.8788 5.71734 19.7601 6.00399 19.5487 6.21533L13.5947 12.1703L19.5469 18.1244Z" fill="#1C2129"/>
</svg>
