<?xml version="1.0" encoding="utf-8"?>
<!-- Generator: Adobe Illustrator 27.4.0, SVG Export Plug-In . SVG Version: 6.00 Build 0)  -->
<svg version="1.1" id="logo" xmlns="http://www.w3.org/2000/svg" xmlns:xlink="http://www.w3.org/1999/xlink" x="0px" y="0px"
	 viewBox="0 0 566.9 623.6" style="enable-background:new 0 0 566.9 623.6;" xml:space="preserve">
<style type="text/css">
	.st0{fill:#FFFFFF;}
</style>
<g>
	<path class="st0" d="M157.7,251.7v69.4H194h29v-69.4h-29H157.7z M165,313.9V259h21.8v54.9H165z M215.8,259v54.9H194V259H215.8z"/>
	<path class="st0" d="M455.1,115.1V61.3H91.9v94.5c2.5,0.6,4.9,1.4,7.3,2.3V68.6h348.7v32.3C451.4,105,453.9,109.7,455.1,115.1z"/>
	<path class="st0" d="M459.3,235.8v330.7H87.7V245.7c-3.2-4.5-6-10.1-7.3-16.9v344.9h386.1V229.1C463.8,232,461.2,234.3,459.3,235.8
		z"/>
	<path class="st0" d="M87.7,57.2h371.6v62.5c2.4-1,4.8-1.8,7.3-2.5V49.9H80.4v104.5c2.4,0,4.9,0.2,7.3,0.6V57.2z"/>
	<path class="st0" d="M467.5,141.1c15.8-11.4,40.6-3.2,53.9,7.3c-8.6-25.1-33.7-32.9-54.8-27.6c-2.5,0.6-4.9,1.4-7.3,2.4
		c-1.4,0.6-2.8,1.3-4.2,2c-2.6,1.4-5,3-7.3,4.8c-0.4,0.3-0.8,0.7-1.2,1c0.6-2.3,1-4.5,1.2-6.7c0.1-1.8,0.1-3.5,0-5.3
		c-1.9-24.5-30.2-41.1-51.2-22.5c0,0,27.9,2.7,33.6,30.9c-21-28.3-83.1-15.5-79.9,17.2c0,0,36.2-19,62.8-5.7c0,0-56.2,12-51.7,48.9
		c0.2,2,0.6,4,1.2,6.1c0,0,0.4-2.9,3.4-7c5.8-8,21.4-20.2,62.7-23.6c-4.5,11.5-10.6,29.5-16.3,50.4c-0.6,2.1-1.1,4.1-1.7,6.2H179.7
		c4.1-15.6-4.2-26.5-14.5-33.6c-12.6-8.8-28.3-12.1-28.3-12.1c22.5-11.3,53.1,4.8,53.1,4.8c2.7-27.6-49.7-38.4-67.5-14.5
		c4.8-23.8,28.4-26.1,28.4-26.1c-20.5-18.1-49.2,3.4-42.2,29.1c-2.8-2.5-6-4.5-9.5-6.1c-2.3-1.1-4.8-1.9-7.3-2.5
		c-1.4-0.3-2.8-0.6-4.2-0.8c-2.4-0.4-4.8-0.5-7.3-0.5c-14.7,0.2-29.2,7.9-34.9,24.6c8.5-6.8,22.7-12.4,34.9-10.4
		c2.5,0.4,5,1.1,7.3,2.3c1.2,0.6,2.3,1.2,3.3,2c-1.1,0-2.2,0.1-3.3,0.2c-2.5,0.3-4.9,0.8-7.3,1.5c-23,6.9-37.3,32.9-26.9,50.7
		c5.6-13.3,14.9-27.7,26.9-34.1c2.3-1.2,4.7-2.2,7.3-2.7c1.4-0.3,2.8-0.5,4.2-0.6c1.8-0.1,3.5,0,5.4,0.3c-2.1,2.6-3.9,5-5.4,7.5
		c-1.7,2.8-3.1,5.4-4.2,8c-5,11.9-3.4,21.9,0,29.4c1.2,2.7,2.7,5,4.2,7.1c2.7,3.7,5.5,6.3,7.3,7.8c1.1,1,1.9,1.5,1.9,1.5
		c-0.8-1.5-1.4-3-1.9-4.5c-2.2-6.8-1.8-13.8,0-20.5c3.3-12.4,11.1-23.6,15.6-29.3c1.6,2.6,3.1,5.9,4.5,9.7c1.3,3.5,2.5,7.5,3.6,11.9
		h-9.9v17.6h13.6c0.2,1.1,0.4,2.2,0.6,3.4H113v7.1h15.1c4,29,5.4,62.3,4.6,82.5h-19.8v13.3h320.5v-13.3h-14.9
		c-1.3-18.4-0.6-50.8,2.6-82.5h12.3v-7.1h-11.6c0.1-1.1,0.3-2.2,0.4-3.4h11.2v-17.6h-8.8c0.4-2.5,0.8-4.9,1.2-7.3
		c3.4-19.3,7.9-35.8,13.7-45.1c2.4,3,5.4,7.2,8.5,12.3c2.7,4.5,5.2,9.6,7.3,15c3.8,10.2,5.5,21.6,1.8,32.3c-0.5,1.4-1.1,2.8-1.8,4.2
		v-24.4c-1.3-6.3-3.6-12.5-7.3-17.8v159.1H346.2v4.9h-66.7v-4.9H99.1V257c-2.3-1.6-4.8-3.7-7.3-6.2v212.9h363.3v-232
		c0.3-0.2,0.9-0.6,1.7-1.3c0.7-0.6,1.6-1.3,2.5-2.2c2.1-2,4.8-4.7,7.3-8.2c7.8-10.9,14.3-28.8,0-51.8c-1.8-2.9-3.9-5.9-6.4-9
		c2.2-0.3,4.3-0.5,6.4-0.3c20.7,1.1,36.8,23.8,45.4,44.3C526.1,179,501.6,142.1,467.5,141.1z M125.3,199.1c-0.6-1.6-1.1-3-1.7-4.4
		c2.2,0.2,4.2,0.4,6.3,0.6c41.6,4.8,48.4,21,49.4,24.6h-47C129.9,211.9,127.5,204.8,125.3,199.1z M380.9,330.5h-4.5V259h4.5V330.5z
		 M369.1,330.5h-4.5V259h4.5V330.5z M357.4,330.5H353V259h4.5V330.5z M345.7,330.5h-65.3V259h65.3V330.5z M273.1,330.5h-4.5V259h4.5
		V330.5z M261.4,330.5H257V259h4.5V330.5z M249.7,330.5h-4.5V259h4.5V330.5z M394.4,330.5h-6.3v-71.8v-6.9H232.3v78.7h-79.5
		c0-24.7-5.8-55.5-12.6-82.5h263.9C397.9,276.5,393.5,306.4,394.4,330.5z M405.7,240.9H138.4c-0.3-1.1-0.6-2.2-0.9-3.4h269
		C406.2,238.6,406,239.7,405.7,240.9z M414.7,362.9l33.2,51.2v9.1l-36-57.1H135.2l-36,57.1v-9l33.3-51.3H414.7z M104.7,456.4
		l11-18.2c8.6,0.1,12.9,2.1,17.5,4.2c5.2,2.4,10.6,4.9,21.3,4.9s16.1-2.5,21.3-4.9c4.7-2.2,9.2-4.2,18.2-4.2
		c9.1,0,13.5,2.1,18.2,4.2c5.2,2.4,10.6,4.9,21.3,4.9s16.1-2.5,21.3-4.9c4.7-2.2,9.2-4.2,18.2-4.2c9.1,0,13.5,2.1,18.2,4.2
		c5.2,2.4,10.6,4.9,21.3,4.9c10.7,0,16.1-2.5,21.3-4.9c4.7-2.2,9.2-4.2,18.2-4.2c9.1,0,13.5,2.1,18.2,4.2c5.2,2.4,10.6,4.9,21.3,4.9
		s16.1-2.5,21.3-4.9c4.7-2.2,9.1-4.2,18.2-4.2l11,18.2H104.7z M140.5,397.1c5.7,0.4,8.8,2.1,12.4,4c4.3,2.3,9.3,5,18.7,5
		c9.4,0,14.3-2.7,18.7-5c4.1-2.2,7.7-4.1,15.2-4.1c7.5,0,11.1,1.9,15.2,4.1c4.3,2.3,9.3,5,18.7,5c9.4,0,14.3-2.7,18.7-5
		c4.1-2.2,7.7-4.1,15.2-4.1c7.5,0,11.1,1.9,15.2,4.1c4.3,2.4,9.3,5,18.7,5c9.4,0,14.3-2.7,18.7-5c4.1-2.2,7.7-4.1,15.2-4.1
		c7.5,0,11.1,1.9,15.2,4.1c4.3,2.4,9.3,5,18.7,5c9.4,0,14.3-2.7,18.7-5c3.7-2,7-3.7,13.1-4.1l6.5,10.8c-6.4,0.8-10.4,2.8-14,4.6
		c-4.5,2.2-8.3,4.2-16.6,4.2s-12.1-1.9-16.6-4.2c-4.6-2.3-9.9-5-19.8-5c-10,0-15.2,2.6-19.8,5c-4.5,2.2-8.3,4.2-16.6,4.2
		c-8.2,0-12.1-1.9-16.6-4.2c-4.6-2.3-9.9-5-19.8-5s-15.2,2.6-19.8,5c-4.5,2.2-8.3,4.2-16.6,4.2c-8.2,0-12.1-1.9-16.6-4.2
		c-4.6-2.3-9.9-5-19.8-5c-10,0-15.2,2.6-19.8,5c-4.5,2.2-8.3,4.2-16.6,4.2c-8.2,0-12.1-1.9-16.6-4.2c-3.5-1.8-7.4-3.7-13.3-4.5
		L140.5,397.1z M144.6,390.3l3-5h251.7l2.9,4.9c-5.5,0.9-9.1,2.8-12.4,4.6c-4.1,2.2-7.7,4.1-15.2,4.1c-7.5,0-11.1-1.9-15.2-4.1
		c-4.3-2.4-9.3-5-18.7-5c-9.4,0-14.3,2.7-18.7,5c-4.1,2.2-7.7,4.1-15.2,4.1c-7.5,0-11.1-1.9-15.2-4.1c-4.3-2.3-9.3-5-18.7-5
		c-9.4,0-14.3,2.7-18.7,5c-4.1,2.2-7.7,4.1-15.2,4.1c-7.5,0-11.1-1.9-15.2-4.1c-4.3-2.3-9.3-5-18.7-5c-9.4,0-14.3,2.7-18.7,5
		c-4.1,2.2-7.7,4.1-15.2,4.1c-7.5,0-11.1-1.9-15.2-4.1C153.2,393.1,149.8,391.2,144.6,390.3z M129.8,414.8
		c6.7,0.3,10.2,2.1,14.2,4.1c4.6,2.3,9.9,5,19.8,5c10,0,15.2-2.6,19.8-5c4.5-2.2,8.3-4.2,16.6-4.2c8.2,0,12.1,1.9,16.6,4.2
		c4.6,2.3,9.9,5,19.8,5c10,0,15.2-2.6,19.8-5c4.5-2.2,8.3-4.2,16.6-4.2s12.1,1.9,16.6,4.2c4.6,2.3,9.9,5,19.8,5
		c10,0,15.2-2.6,19.8-5c4.5-2.2,8.3-4.2,16.6-4.2c8.2,0,12.1,1.9,16.6,4.2c4.6,2.3,9.9,5,19.8,5c10,0,15.2-2.6,19.8-5
		c4.2-2.1,7.8-3.9,14.9-4.2l9.8,16.3c-7.9,0.6-12.5,2.7-17,4.8c-4.7,2.2-9.2,4.2-18.2,4.2s-13.5-2.1-18.2-4.2
		c-5.2-2.4-10.6-4.9-21.3-4.9c-10.7,0-16.1,2.5-21.3,4.9c-4.7,2.2-9.2,4.2-18.2,4.2c-9.1,0-13.5-2.1-18.2-4.2
		c-5.2-2.4-10.6-4.9-21.3-4.9c-10.7,0-16.1,2.5-21.3,4.9c-4.7,2.2-9.2,4.2-18.2,4.2s-13.5-2.1-18.2-4.2c-5.2-2.4-10.6-4.9-21.3-4.9
		c-10.7,0-16.1,2.5-21.3,4.9c-4.7,2.2-9.2,4.2-18.2,4.2c-9.1,0-13.5-2.1-18.2-4.2c-4.3-2-8.8-4.1-16.3-4.7L129.8,414.8z
		 M403.5,378.1H143.5l-44.4,73.5v-14.9l40-63.4h268.7l40,63.4v14.9L403.5,378.1z"/>
	<path class="st0" d="M91.9,497.4h46.9V545h25v-47.6h46.9v-22.9H91.9V497.4z M99.1,481.8h104.2v8.3h-46.9v47.6H146v-47.6H99.1V481.8
		z"/>
	<path class="st0" d="M218.9,474.5V545h107.6v-22.9h-82.7v-47.6H218.9z M319.2,529.4v8.3h-93.1v-55.9h10.4v47.6H319.2z"/>
	<path class="st0" d="M455.1,523v-26.5c0-6.4-2.2-11.7-6.5-15.8c-4.3-4.1-9.8-6.2-16.4-6.2h-97.4V545h97.4c6.6,0,12.1-2.1,16.4-6.2
		C453,534.7,455.1,529.4,455.1,523z M447.9,523c0,4.4-1.4,7.8-4.2,10.6c-2.9,2.8-6.6,4.1-11.3,4.1h-90.1v-55.9h90.1
		c4.7,0,8.4,1.4,11.3,4.1c2.9,2.7,4.2,6.2,4.2,10.6V523z"/>
	<path class="st0" d="M428.4,490.1h-75.8v39.2h75.8c2.5,0,4.7-0.9,6.4-2.5c1.7-1.7,2.6-3.9,2.6-6.4v-21.3c0-2.5-0.9-4.8-2.6-6.4
		C433.1,491,430.9,490.1,428.4,490.1z M430.2,520.4c0,0.7-0.2,1-0.4,1.2c-0.2,0.2-0.6,0.5-1.4,0.5h-68.6v-24.7h68.6
		c0.8,0,1.1,0.2,1.3,0.5c0.2,0.2,0.4,0.5,0.4,1.2V520.4z"/>
	<polygon class="st0" points="99.1,507.4 91.9,507.4 91.9,562.3 455.3,562.3 455.3,555 99.1,555 	"/>
</g>
</svg>
